# xmcd
#
# Track frame offsets: 
#        150
#        20805
#        38649
#        53794
#        71996
#        89088
#        104388
#        117528
#        138188
#        151694
#
# Disc length: 2158 seconds
#
# Revision: 0
# Processed by: cddbd v1.4PL0 Copyright (c) Steve Scherf et al.
# Submitted via: ExactAudioCopy v0.95a3
#
DISCID=8a086c0a
DTITLE=Jackson Taylor Band - Hollow Eyed and Wasted
DYEAR=2003
DGENRE=Country
TTITLE0=Long Legs and Long Necks
TTITLE1=Blue Agave
TTITLE2=Maria
TTITLE3=Something More
TTITLE4=Old Lone Star
TTITLE5=Hollow Eyed and Wasted
TTITLE6=Mystery Train
TTITLE7=Circle Of Trust
TTITLE8=Eleven Roses
TTITLE9=Ride The Lightnin'
EXTD=
EXTT0=
EXTT1=
EXTT2=
EXTT3=
EXTT4=
EXTT5=
EXTT6=
EXTT7=
EXTT8=
EXTT9=
PLAYORDER=
